<svg width="124" height="124" viewBox="0 0 124 124" fill="none" xmlns="http://www.w3.org/2000/svg">
<g clip-path="url(#clip0_21_173)">
<path fill-rule="evenodd" clip-rule="evenodd" d="M48.7143 91.8928H14.3929C12.0438 91.8928 9.791 90.9592 8.12996 89.2985C6.46893 87.6375 5.53577 85.3847 5.53577 83.0356V14.3928C5.53577 12.0437 6.46893 9.79088 8.12996 8.12984C9.791 6.46881 12.0438 5.53564 14.3929 5.53564H83.0358C85.3849 5.53564 87.6377 6.46881 89.2986 8.12984C90.9594 9.79088 91.8929 12.0437 91.8929 14.3928V48.7142C83.924 48.6996 75.9439 53.5669 73.8552 63.2695L73.6708 64.1264C72.5633 69.271 68.5691 73.0125 63.8097 73.8545C53.7461 75.6349 48.7143 83.7638 48.7143 91.8928Z" fill="#00164A"/>
<path fill-rule="evenodd" clip-rule="evenodd" d="M14.3929 11.0714C13.5119 11.0714 12.6671 11.4214 12.0442 12.0442C11.4214 12.6671 11.0714 13.5119 11.0714 14.3929V53.2496C12.2846 53.1787 13.5067 53.1429 14.7369 53.1429C33.3888 53.1429 50.1117 61.3785 61.475 74.4053C50.838 77.5807 46.8511 88.4705 49.5142 97.4286H13.2857C9.76217 97.4286 6.38285 96.0291 3.8913 93.5376C1.39974 91.0461 0 87.6668 0 84.1433V14.3929C0 10.5756 1.51639 6.91475 4.21557 4.21557C6.91475 1.51639 10.5756 0 14.3929 0H83.0357C86.853 0 90.5138 1.51639 93.2126 4.21557C95.9122 6.91475 97.4286 10.5756 97.4286 14.3929V43.1786C97.4286 46.2359 94.9503 48.7143 91.8929 48.7143C88.8354 48.7143 86.3571 46.2359 86.3571 43.1786V14.3929C86.3571 13.5119 86.0072 12.6671 85.3843 12.0442C84.7614 11.4214 83.9166 11.0714 83.0357 11.0714H14.3929ZM55.3571 19.9286C48.0196 19.9286 42.0714 25.8768 42.0714 33.2143C42.0714 40.5518 48.0196 46.5 55.3571 46.5C62.6947 46.5 68.6429 40.5518 68.6429 33.2143C68.6429 25.8768 62.6947 19.9286 55.3571 19.9286ZM98.9874 65.5371C97.2585 57.8307 86.3392 57.8859 84.6786 65.5995L84.4941 66.4565C82.4585 75.9125 75.0174 83.1152 65.7383 84.7567C57.8015 86.1608 57.8015 97.6252 65.7383 99.0291C75.0174 100.67 82.4585 107.873 84.4941 117.329L84.6786 118.186C86.3392 125.9 97.2585 125.955 98.9874 118.248L99.2106 117.25C101.324 107.83 108.773 100.682 118.036 99.0432C125.988 97.6367 125.988 86.1494 118.036 84.7426C108.773 83.1039 101.324 75.9553 99.2106 66.5358L98.9874 65.5371Z" fill="white"/>
</g>
<defs>
<clipPath id="clip0_21_173">
<rect width="124" height="124" fill="white"/>
</clipPath>
</defs>
</svg>
