<svg width="141" height="141" viewBox="0 0 141 141" fill="none" xmlns="http://www.w3.org/2000/svg">
<path fill-rule="evenodd" clip-rule="evenodd" d="M48.0365 9.25885C47.5895 5.11115 43.8647 2.11122 39.7169 2.5583C36.2275 2.93444 32.7705 3.33551 29.3801 3.72886L28.8351 3.79209C15.695 5.31627 5.21817 15.771 3.73978 28.9488C3.34124 32.5013 2.93599 36.1232 2.55831 39.7835C2.13013 43.9333 5.14701 47.6443 9.2967 48.0725C13.4464 48.5007 17.1575 45.4838 17.5857 41.3341C17.9555 37.75 18.3535 34.1916 18.7528 30.6331C19.4436 24.476 24.3891 19.5162 30.5757 18.7986L31.1037 18.7374C34.5084 18.3424 37.9094 17.9478 41.336 17.5785C45.4837 17.1314 48.4836 13.4066 48.0365 9.25885ZM92.9704 9.25885C93.4175 5.11115 97.1423 2.11122 101.29 2.5583C104.78 2.93443 108.237 3.33548 111.627 3.72881L112.173 3.79209C125.313 5.31627 135.789 15.771 137.267 28.9488C137.666 32.5013 138.071 36.1232 138.449 39.7835C138.877 43.9333 135.861 47.6443 131.71 48.0725C127.561 48.5007 123.849 45.4838 123.421 41.3341C123.052 37.75 122.654 34.1916 122.254 30.6331C121.564 24.476 116.618 19.5162 110.431 18.7986L109.903 18.7374C106.499 18.3424 103.098 17.9478 99.6709 17.5785C95.5233 17.1314 92.5234 13.4066 92.9704 9.25885ZM78.058 42.5839C81.7397 40.4918 83.7227 36.5728 83.7227 31.1113C83.7227 22.6508 78.9637 17.8918 70.5032 17.8918C62.0427 17.8918 57.2837 22.6508 57.2837 31.1113C57.2837 36.5739 59.2676 40.4934 62.9508 42.5853L62.9506 48.0551C56.3089 48.1331 49.5611 48.4199 43.5328 49.4739C37.6293 50.5061 33.0852 55.0713 31.8434 60.8231C30.6486 66.3575 30.6487 70.9661 30.6488 79.3463V79.9672C30.6487 88.3475 30.6486 92.956 31.8434 98.4905C33.0852 104.242 37.6293 108.808 43.5328 109.84C51.8148 111.287 61.455 111.287 70.3124 111.287H70.693C79.5504 111.287 89.1906 111.287 97.4727 109.84C103.376 108.808 107.92 104.242 109.162 98.4905C110.358 92.9561 110.357 88.3476 110.357 79.9675V79.3462C110.357 70.9662 110.358 66.3574 109.162 60.8231C107.92 55.0713 103.376 50.5061 97.4727 49.4739C91.4453 48.42 84.6987 48.1332 78.0578 48.0551L78.058 42.5839ZM84.9094 69.8056C81.4329 69.8056 78.6147 72.6238 78.6147 76.1002V80.3946C78.6147 83.8709 81.4329 86.6892 84.9094 86.6892C88.3858 86.6891 91.204 83.8709 91.204 80.3945V76.1002C91.204 72.6238 88.3857 69.8056 84.9094 69.8056ZM49.7921 76.1002C49.7921 72.6238 52.6103 69.8056 56.0867 69.8056C59.5632 69.8056 62.3814 72.6238 62.3814 76.1002V80.3945C62.3814 83.8709 59.5632 86.6891 56.0867 86.6892C52.6104 86.6892 49.7921 83.8709 49.7921 80.3946V76.1002ZM101.29 138.439C97.1423 138.886 93.4175 135.887 92.9704 131.738C92.5234 127.591 95.5233 123.866 99.6709 123.419C103.098 123.05 106.499 122.655 109.903 122.26L110.431 122.199C116.618 121.482 121.564 116.521 122.254 110.365C122.654 106.806 123.052 103.247 123.421 99.6634C123.849 95.5138 127.561 92.4969 131.71 92.925C135.861 93.3533 138.877 97.0643 138.449 101.214C138.071 104.875 137.666 108.496 137.267 112.049C135.789 125.226 125.313 135.681 112.173 137.205L111.628 137.269C108.238 137.662 104.78 138.063 101.29 138.439ZM39.7169 138.439C43.8647 138.886 47.5895 135.887 48.0365 131.738C48.4836 127.591 45.4837 123.866 41.336 123.419C37.9094 123.05 34.5084 122.655 31.1037 122.26L30.5757 122.199C24.3891 121.482 19.4436 116.521 18.7528 110.365C18.3535 106.806 17.9555 103.247 17.5857 99.6634C17.1575 95.5138 13.4464 92.4969 9.2967 92.925C5.14701 93.3533 2.13013 97.0643 2.55831 101.214C2.93599 104.875 3.34124 108.496 3.73978 112.049C5.21817 125.226 15.695 135.681 28.8351 137.205L29.3801 137.269C32.7704 137.662 36.2275 138.063 39.7169 138.439Z" fill="white"/>
</svg>
