<svg width="124" height="124" viewBox="0 0 124 124" fill="none" xmlns="http://www.w3.org/2000/svg">
<path d="M98.6048 122.759C93.3102 122.759 85.8723 120.844 74.7345 114.622C61.1909 107.026 50.7152 100.015 37.2444 86.5793C24.2569 73.5999 17.9368 65.1965 9.09123 49.1001C-0.901619 30.9263 0.801831 21.3998 2.70601 17.3284C4.97366 12.4622 8.32088 9.55156 12.6474 6.66262C15.1047 5.05268 17.7054 3.67241 20.416 2.53961C20.6873 2.42311 20.9394 2.31176 21.1647 2.21153C22.5075 1.60651 24.5419 0.692532 27.1188 1.66903C28.8385 2.31461 30.3738 3.63546 32.777 6.00903C37.7058 10.8698 44.441 21.6953 46.9257 27.012C48.594 30.5951 49.6979 32.9607 49.7007 35.6135C49.7007 38.7195 48.1383 41.1145 46.2421 43.6996C45.8869 44.185 45.5341 44.6487 45.1925 45.0993C43.1279 47.8118 42.6751 48.5958 42.9735 49.9952C43.5785 52.8082 48.0892 61.1818 55.5029 68.5789C62.916 75.976 71.0483 80.2021 73.8719 80.8043C75.3313 81.1163 76.1313 80.6444 78.9309 78.5067C79.3323 78.2003 79.7446 77.883 80.1758 77.5658C83.0676 75.4147 85.3515 73.8928 88.3841 73.8928H88.4003C91.0397 73.8928 93.2991 75.0375 97.0424 76.9254C101.925 79.3884 113.076 86.0368 117.967 90.971C120.346 93.3686 121.672 94.8987 122.321 96.6156C123.297 99.2007 122.378 101.227 121.778 102.583C121.678 102.808 121.567 103.055 121.45 103.329C120.308 106.035 118.92 108.63 117.302 111.082C114.419 115.395 111.498 118.734 106.62 121.004C104.116 122.189 101.375 122.789 98.6048 122.759Z" fill="white"/>
</svg>
