<svg width="141" height="141" viewBox="0 0 141 141" fill="none" xmlns="http://www.w3.org/2000/svg">
<path fill-rule="evenodd" clip-rule="evenodd" d="M70.5 7.34375C64.7933 7.34375 60.034 7.57649 56.4206 7.84835C49.4793 8.37058 43.7755 12.7224 40.9073 18.6188L37.7557 25.098C32.0155 25.3116 27.1579 25.562 23.1805 25.8066C12.5283 26.4618 4.00414 34.6278 3.03335 45.3021C2.25797 53.8282 1.46875 65.7718 1.46875 79.0922C1.46875 92.4126 2.25797 104.356 3.03335 112.882C4.00414 123.557 12.5282 131.722 23.1805 132.378C33.2734 132.999 49.0327 133.656 70.5 133.656C91.9672 133.656 107.727 132.999 117.82 132.378C128.472 131.722 136.996 123.557 137.967 112.882C138.742 104.356 139.531 92.4126 139.531 79.0922C139.531 65.7718 138.742 53.8279 137.967 45.3021C136.996 34.6278 128.472 26.4618 117.82 25.8067C113.842 25.562 108.984 25.3116 103.245 25.098L100.093 18.6188C97.2245 12.7224 91.5207 8.37058 84.5794 7.84835C80.966 7.57649 76.2067 7.34375 70.5 7.34375ZM57.3021 19.5652C60.647 19.3136 65.1117 19.0938 70.5 19.0938C75.8885 19.0938 80.353 19.3136 83.6979 19.5652C86.0843 19.7448 88.3107 21.2589 89.5265 23.7585L94.2244 33.4164C95.1779 35.3769 97.1387 36.648 99.3175 36.7185C106.514 36.9514 112.44 37.2481 117.098 37.5345C122.023 37.8374 125.825 41.5333 126.265 46.3664C127.017 54.6396 127.781 66.2159 127.781 79.0922C127.781 91.9684 127.017 103.545 126.265 111.818C125.825 116.651 122.023 120.347 117.098 120.65C107.246 121.256 91.727 121.906 70.5 121.906C49.273 121.906 33.7539 121.256 23.9018 120.65C18.9765 120.347 15.1746 116.651 14.7351 111.818C13.9826 103.545 13.2188 91.9684 13.2188 79.0922C13.2188 66.2159 13.9826 54.6396 14.7351 46.3664C15.1746 41.5333 18.9765 37.8374 23.9018 37.5345C28.5603 37.2481 34.4857 36.9514 41.6825 36.7185C43.8613 36.648 45.8221 35.3769 46.7756 33.4164L51.4735 23.7585C52.6894 21.2589 54.9157 19.7448 57.3021 19.5652ZM41.125 77.8438C41.125 61.6205 54.2768 48.4688 70.5 48.4688C86.7232 48.4688 99.875 61.6205 99.875 77.8438C99.875 94.067 86.7232 107.219 70.5 107.219C54.2768 107.219 41.125 94.067 41.125 77.8438Z" fill="white"/>
</svg>
