<svg width="124" height="124" viewBox="0 0 124 124" fill="none" xmlns="http://www.w3.org/2000/svg">
<g clip-path="url(#clip0_21_187)">
<path d="M62.0015 118.463C30.8187 118.463 5.53992 93.1842 5.53992 62.0016C5.53992 30.8188 30.8187 5.54004 62.0015 5.54004C93.1841 5.54004 118.463 30.8188 118.463 62.0016C118.463 93.1842 93.1841 118.463 62.0015 118.463Z" fill="white"/>
<path d="M62.0009 1.00439C95.6886 1.00439 122.999 28.3137 122.999 62.0015C122.999 91.3334 102.294 115.831 74.703 121.674L73.3837 121.939C73.1895 121.976 72.9947 122.011 72.7997 122.045C69.2921 122.673 65.6823 123 61.9989 123C42.3312 123 24.8368 113.688 13.6874 99.2466L13.6854 99.2446L13.6083 99.1411L13.5966 99.1245L13.5848 99.1089L12.8544 98.1372C5.40517 88.0232 1.00378 75.5275 1.00378 62.0015C1.00389 28.3138 28.3132 1.0045 62.0009 1.00439ZM62.0009 10.0757C33.3231 10.0758 10.0752 33.3237 10.0751 62.0015C10.0751 71.3607 12.5517 80.1448 16.8866 87.73L17.579 88.9409L18.5038 87.897C24.8099 80.7774 34.0203 76.2856 44.285 76.2856C62.9913 76.2859 78.2131 91.2054 78.701 109.793L78.7382 111.191L80.0487 110.706C83.9044 109.277 87.5436 107.402 90.9042 105.146L91.4227 104.798L91.3378 104.179C90.2356 96.17 87.1354 88.7984 82.5594 82.5825C85.8091 81.3759 89.3254 80.7144 92.9989 80.7144C98.3093 80.7144 103.298 82.096 107.625 84.5161L108.561 85.0405L109.018 84.0688C112.167 77.3705 113.928 69.89 113.928 62.0015C113.928 33.3237 90.6782 10.0757 62.0009 10.0757ZM92.9999 41.4321C101.913 41.4324 109.139 48.6586 109.139 57.5718C109.138 66.4848 101.913 73.7102 92.9999 73.7104C84.0866 73.7104 76.8604 66.485 76.8602 57.5718C76.8602 48.6584 84.0865 41.4321 92.9999 41.4321ZM44.285 29.4722C54.9121 29.4722 63.5272 38.0872 63.5272 48.7144C63.5272 59.3415 54.9121 67.9565 44.285 67.9565C33.658 67.9565 25.0428 59.3414 25.0428 48.7144C25.0428 38.0873 33.658 29.4722 44.285 29.4722Z" fill="#00164A" stroke="white" stroke-width="2"/>
</g>
<defs>
<clipPath id="clip0_21_187">
<rect width="124" height="124" fill="white"/>
</clipPath>
</defs>
</svg>
