<svg width="1196" height="150" viewBox="0 0 1196 150" fill="none" xmlns="http://www.w3.org/2000/svg">
<path d="M50.6 62.7C49.4667 60.8333 47.9 59.4 45.9 58.4C43.9667 57.4 41.6667 56.9 39 56.9C34.0667 56.9 30.1667 58.5 27.3 61.7C24.5 64.9 23.1 69.2 23.1 74.6C23.1 80.6667 24.6 85.3 27.6 88.5C30.6667 91.6333 35.1 93.2 40.9 93.2C47.7667 93.2 52.6667 90.1 55.6 83.9H35.9V69.8H72.5V88.8C70.9667 92.5333 68.7 96.0333 65.7 99.3C62.7667 102.567 59.0333 105.267 54.5 107.4C49.9667 109.467 44.8 110.5 39 110.5C31.9333 110.5 25.6667 109 20.2 106C14.8 102.933 10.6 98.7 7.6 93.3C4.66667 87.8333 3.2 81.6 3.2 74.6C3.2 67.6667 4.66667 61.5 7.6 56.1C10.6 50.6333 14.8 46.4 20.2 43.4C25.6 40.3333 31.8333 38.8 38.9 38.8C47.7667 38.8 55.1 40.9333 60.9 45.2C66.7 49.4667 70.3 55.3 71.7 62.7H50.6ZM100.884 55.2V66.7H123.384V81.6H100.884V94.3H126.384V110H81.2836V39.5H126.384V55.2H100.884ZM268.331 63C268.331 67.2667 267.331 71.1667 265.331 74.7C263.398 78.1667 260.431 80.9667 256.431 83.1C252.498 85.1667 247.665 86.2 241.931 86.2H232.231V110H212.631V39.5H241.931C247.598 39.5 252.398 40.5 256.331 42.5C260.331 44.5 263.331 47.2667 265.331 50.8C267.331 54.3333 268.331 58.4 268.331 63ZM240.031 70.6C245.565 70.6 248.331 68.0667 248.331 63C248.331 57.8667 245.565 55.3 240.031 55.3H232.231V70.6H240.031ZM310.005 110.7C303.405 110.7 297.339 109.167 291.805 106.1C286.272 102.967 281.872 98.6667 278.605 93.2C275.405 87.6667 273.805 81.4333 273.805 74.5C273.805 67.5667 275.405 61.3667 278.605 55.9C281.872 50.3667 286.272 46.0667 291.805 43C297.339 39.9333 303.405 38.4 310.005 38.4C316.672 38.4 322.739 39.9333 328.205 43C333.739 46.0667 338.105 50.3667 341.305 55.9C344.505 61.3667 346.105 67.5667 346.105 74.5C346.105 81.4333 344.505 87.6667 341.305 93.2C338.105 98.6667 333.739 102.967 328.205 106.1C322.672 109.167 316.605 110.7 310.005 110.7ZM310.005 92.5C315.005 92.5 318.939 90.8667 321.805 87.6C324.739 84.3333 326.205 79.9667 326.205 74.5C326.205 68.9 324.739 64.5 321.805 61.3C318.939 58.0333 315.005 56.4 310.005 56.4C304.939 56.4 300.972 58.0333 298.105 61.3C295.239 64.5 293.805 68.9 293.805 74.5C293.805 80.0333 295.239 84.4333 298.105 87.7C300.972 90.9 304.939 92.5 310.005 92.5ZM390.616 110L376.616 84H374.516V110H354.916V39.5H385.816C391.483 39.5 396.283 40.5 400.216 42.5C404.15 44.4333 407.116 47.1333 409.116 50.6C411.116 54 412.116 57.8333 412.116 62.1C412.116 66.9 410.783 71.1333 408.116 74.8C405.516 78.4 401.683 80.9667 396.616 82.5L412.516 110H390.616ZM374.516 70.6H384.216C386.883 70.6 388.883 69.9667 390.216 68.7C391.55 67.4333 392.216 65.6 392.216 63.2C392.216 60.9333 391.516 59.1667 390.116 57.9C388.783 56.5667 386.816 55.9 384.216 55.9H374.516V70.6ZM474.13 39.5V55.1H455.33V110H435.73V55.1H417.13V39.5H474.13ZM582.822 39.5V110H563.222V71.1L549.922 110H533.522L520.122 70.8V110H500.522V39.5H524.222L541.922 85.3L559.222 39.5H582.822ZM638.579 98.5H613.579L609.779 110H589.179L614.879 39.5H637.479L663.079 110H642.379L638.579 98.5ZM633.679 83.5L626.079 60.7L618.579 83.5H633.679ZM689.067 95H710.967V110H669.467V39.5H689.067V95ZM763.188 98.5H738.188L734.388 110H713.788L739.488 39.5H762.088L787.688 110H766.988L763.188 98.5ZM758.288 83.5L750.688 60.7L743.188 83.5H758.288ZM858.177 39.5L833.377 87.6V110H813.677V87.6L788.877 39.5H811.277L823.677 66.7L836.077 39.5H858.177ZM909.194 73.8C913.327 74.7333 916.594 76.8 918.994 80C921.46 83.1333 922.694 86.7333 922.694 90.8C922.694 96.8 920.627 101.5 916.494 104.9C912.36 108.3 906.56 110 899.094 110H864.194V39.5H897.994C905.194 39.5 910.827 41.1 914.894 44.3C919.027 47.5 921.094 52 921.094 57.8C921.094 61.9333 919.994 65.4 917.794 68.2C915.66 70.9333 912.794 72.8 909.194 73.8ZM883.794 67.5H893.694C898.627 67.5 901.094 65.4667 901.094 61.4C901.094 57.2 898.627 55.1 893.694 55.1H883.794V67.5ZM895.194 94.2C900.127 94.2 902.594 92.1333 902.594 88C902.594 85.8667 901.927 84.2333 900.594 83.1C899.327 81.9667 897.494 81.4 895.094 81.4H883.794V94.2H895.194ZM975.884 98.5H950.884L947.084 110H926.484L952.184 39.5H974.784L1000.38 110H979.684L975.884 98.5ZM970.984 83.5L963.384 60.7L955.884 83.5H970.984ZM1026.37 95H1048.27V110H1006.77V39.5H1026.37V95ZM1100.49 98.5H1075.49L1071.69 110H1051.09L1076.79 39.5H1099.39L1124.99 110H1104.29L1100.49 98.5ZM1095.59 83.5L1087.99 60.7L1080.49 83.5H1095.59ZM1195.48 39.5L1170.68 87.6V110H1150.98V87.6L1126.18 39.5H1148.58L1160.98 66.7L1173.38 39.5H1195.48Z" fill="white"/>
<path d="M170.641 106.713C170.046 107.138 169.333 107.366 168.602 107.366C167.871 107.366 167.158 107.138 166.563 106.713C148.982 94.1816 130.323 68.4051 149.186 49.7791C154.363 44.6825 161.338 41.8286 168.602 41.835C175.884 41.835 182.87 44.693 188.018 49.7754C206.881 68.4015 188.222 94.1743 170.641 106.713Z" stroke="white" stroke-width="9" stroke-linecap="round" stroke-linejoin="round"/>
<path d="M168.602 74.6016C170.533 74.6016 172.385 73.8344 173.75 72.4689C175.116 71.1033 175.883 69.2512 175.883 67.3201C175.883 65.3889 175.116 63.5368 173.75 62.1713C172.385 60.8057 170.533 60.0386 168.602 60.0386C166.67 60.0386 164.818 60.8057 163.453 62.1713C162.087 63.5368 161.32 65.3889 161.32 67.3201C161.32 69.2512 162.087 71.1033 163.453 72.4689C164.818 73.8344 166.67 74.6016 168.602 74.6016Z" stroke="white" stroke-width="5.8252" stroke-linecap="round" stroke-linejoin="round"/>
</svg>
