<svg width="138" height="141" viewBox="0 0 138 141" fill="none" xmlns="http://www.w3.org/2000/svg">
<path fill-rule="evenodd" clip-rule="evenodd" d="M0 60.1514C0 26.9306 30.8922 0 69 0C107.108 0 138 26.9306 138 60.1514C138 81.7054 125.242 99.8363 111.37 113.217C97.4552 126.639 81.9072 135.785 75.1449 139.456C71.3517 141.515 66.6483 141.515 62.8551 139.456C56.0928 135.785 40.5448 126.639 26.6298 113.217C12.7583 99.8363 0 81.7054 0 60.1514ZM69 84.829C84.634 84.829 97.3077 73.7805 97.3077 60.1514C97.3077 46.5224 84.634 35.4739 69 35.4739C53.366 35.4739 40.6923 46.5224 40.6923 60.1514C40.6923 73.7805 53.366 84.829 69 84.829Z" fill="white"/>
</svg>
