<svg width="124" height="124" viewBox="0 0 124 124" fill="none" xmlns="http://www.w3.org/2000/svg">
<path fill-rule="evenodd" clip-rule="evenodd" d="M11.625 54.25C11.625 26.4285 34.1786 3.875 62 3.875C89.8215 3.875 112.375 26.4285 112.375 54.25C112.375 72.3008 103.061 87.4848 92.9334 98.6906C82.7744 109.931 71.4233 117.59 66.4862 120.665C63.7169 122.389 60.2831 122.389 57.5138 120.665C52.5768 117.59 41.2256 109.931 31.0667 98.6906C20.9395 87.4848 11.625 72.3008 11.625 54.25ZM62 74.9167C73.414 74.9167 82.6667 65.6639 82.6667 54.25C82.6667 42.8361 73.414 33.5833 62 33.5833C50.5861 33.5833 41.3334 42.8361 41.3334 54.25C41.3334 65.6639 50.5861 74.9167 62 74.9167Z" fill="white"/>
</svg>
