<svg width="1196" height="192" viewBox="0 0 1196 192" fill="none" xmlns="http://www.w3.org/2000/svg">
<path d="M356.36 148.2V151.92H344.56V160.12H353.76V163.84H344.56V176H340V148.2H356.36ZM370.146 176.36C368.066 176.36 366.186 175.893 364.506 174.96C362.826 174 361.506 172.667 360.546 170.96C359.586 169.227 359.106 167.227 359.106 164.96C359.106 162.72 359.599 160.733 360.586 159C361.573 157.267 362.919 155.933 364.626 155C366.333 154.067 368.239 153.6 370.346 153.6C372.453 153.6 374.359 154.067 376.066 155C377.773 155.933 379.119 157.267 380.106 159C381.093 160.733 381.586 162.72 381.586 164.96C381.586 167.2 381.079 169.187 380.066 170.92C379.053 172.653 377.666 174 375.906 174.96C374.173 175.893 372.253 176.36 370.146 176.36ZM370.146 172.4C371.319 172.4 372.413 172.12 373.426 171.56C374.466 171 375.306 170.16 375.946 169.04C376.586 167.92 376.906 166.56 376.906 164.96C376.906 163.36 376.599 162.013 375.986 160.92C375.373 159.8 374.559 158.96 373.546 158.4C372.533 157.84 371.439 157.56 370.266 157.56C369.093 157.56 367.999 157.84 366.986 158.4C365.999 158.96 365.213 159.8 364.626 160.92C364.039 162.013 363.746 163.36 363.746 164.96C363.746 167.333 364.346 169.173 365.546 170.48C366.773 171.76 368.306 172.4 370.146 172.4ZM390.654 157.16C391.32 156.04 392.2 155.173 393.294 154.56C394.414 153.92 395.734 153.6 397.254 153.6V158.32H396.094C394.307 158.32 392.947 158.773 392.014 159.68C391.107 160.587 390.654 162.16 390.654 164.4V176H386.094V153.96H390.654V157.16ZM441.116 148.2V176H436.556V156.96L428.076 176H424.916L416.396 156.96V176H411.836V148.2H416.756L426.516 170L436.236 148.2H441.116ZM456.669 176.36C454.589 176.36 452.709 175.893 451.029 174.96C449.349 174 448.029 172.667 447.069 170.96C446.109 169.227 445.629 167.227 445.629 164.96C445.629 162.72 446.123 160.733 447.109 159C448.096 157.267 449.443 155.933 451.149 155C452.856 154.067 454.763 153.6 456.869 153.6C458.976 153.6 460.883 154.067 462.589 155C464.296 155.933 465.643 157.267 466.629 159C467.616 160.733 468.109 162.72 468.109 164.96C468.109 167.2 467.603 169.187 466.589 170.92C465.576 172.653 464.189 174 462.429 174.96C460.696 175.893 458.776 176.36 456.669 176.36ZM456.669 172.4C457.843 172.4 458.936 172.12 459.949 171.56C460.989 171 461.829 170.16 462.469 169.04C463.109 167.92 463.429 166.56 463.429 164.96C463.429 163.36 463.123 162.013 462.509 160.92C461.896 159.8 461.083 158.96 460.069 158.4C459.056 157.84 457.963 157.56 456.789 157.56C455.616 157.56 454.523 157.84 453.509 158.4C452.523 158.96 451.736 159.8 451.149 160.92C450.563 162.013 450.269 163.36 450.269 164.96C450.269 167.333 450.869 169.173 452.069 170.48C453.296 171.76 454.829 172.4 456.669 172.4ZM477.177 157.24C477.951 156.173 479.004 155.307 480.337 154.64C481.697 153.947 483.204 153.6 484.857 153.6C486.804 153.6 488.564 154.067 490.137 155C491.711 155.933 492.951 157.267 493.857 159C494.764 160.707 495.217 162.667 495.217 164.88C495.217 167.093 494.764 169.08 493.857 170.84C492.951 172.573 491.697 173.933 490.097 174.92C488.524 175.88 486.777 176.36 484.857 176.36C483.151 176.36 481.631 176.027 480.297 175.36C478.991 174.693 477.951 173.84 477.177 172.8V176H472.617V146.4H477.177V157.24ZM490.577 164.88C490.577 163.36 490.257 162.053 489.617 160.96C489.004 159.84 488.177 159 487.137 158.44C486.124 157.853 485.031 157.56 483.857 157.56C482.711 157.56 481.617 157.853 480.577 158.44C479.564 159.027 478.737 159.88 478.097 161C477.484 162.12 477.177 163.44 477.177 164.96C477.177 166.48 477.484 167.813 478.097 168.96C478.737 170.08 479.564 170.933 480.577 171.52C481.617 172.107 482.711 172.4 483.857 172.4C485.031 172.4 486.124 172.107 487.137 171.52C488.177 170.907 489.004 170.027 489.617 168.88C490.257 167.733 490.577 166.4 490.577 164.88ZM502.047 151.04C501.22 151.04 500.527 150.76 499.967 150.2C499.407 149.64 499.127 148.947 499.127 148.12C499.127 147.293 499.407 146.6 499.967 146.04C500.527 145.48 501.22 145.2 502.047 145.2C502.847 145.2 503.527 145.48 504.087 146.04C504.647 146.6 504.927 147.293 504.927 148.12C504.927 148.947 504.647 149.64 504.087 150.2C503.527 150.76 502.847 151.04 502.047 151.04ZM504.287 153.96V176H499.727V153.96H504.287ZM514.833 146.4V176H510.273V146.4H514.833ZM541.02 164.44C541.02 165.267 540.967 166.013 540.86 166.68H524.02C524.154 168.44 524.807 169.853 525.98 170.92C527.154 171.987 528.594 172.52 530.3 172.52C532.754 172.52 534.487 171.493 535.5 169.44H540.42C539.754 171.467 538.54 173.133 536.78 174.44C535.047 175.72 532.887 176.36 530.3 176.36C528.194 176.36 526.3 175.893 524.62 174.96C522.967 174 521.66 172.667 520.7 170.96C519.767 169.227 519.3 167.227 519.3 164.96C519.3 162.693 519.754 160.707 520.66 159C521.594 157.267 522.887 155.933 524.54 155C526.22 154.067 528.14 153.6 530.3 153.6C532.38 153.6 534.234 154.053 535.86 154.96C537.487 155.867 538.754 157.147 539.66 158.8C540.567 160.427 541.02 162.307 541.02 164.44ZM536.26 163C536.234 161.32 535.634 159.973 534.46 158.96C533.287 157.947 531.834 157.44 530.1 157.44C528.527 157.44 527.18 157.947 526.06 158.96C524.94 159.947 524.274 161.293 524.06 163H536.26ZM550.508 170.52L545.668 181.56H542.708L545.548 170.52H550.508ZM579.763 161.72C581.256 161.987 582.523 162.773 583.563 164.08C584.603 165.387 585.123 166.867 585.123 168.52C585.123 169.933 584.749 171.213 584.003 172.36C583.283 173.48 582.229 174.373 580.843 175.04C579.456 175.68 577.843 176 576.003 176H564.883V148.2H575.483C577.376 148.2 579.003 148.52 580.363 149.16C581.723 149.8 582.749 150.667 583.443 151.76C584.136 152.827 584.483 154.027 584.483 155.36C584.483 156.96 584.056 158.293 583.203 159.36C582.349 160.427 581.203 161.213 579.763 161.72ZM569.443 159.88H575.083C576.576 159.88 577.736 159.547 578.563 158.88C579.416 158.187 579.843 157.2 579.843 155.92C579.843 154.667 579.416 153.693 578.563 153C577.736 152.28 576.576 151.92 575.083 151.92H569.443V159.88ZM575.603 172.28C577.149 172.28 578.363 171.907 579.243 171.16C580.123 170.413 580.563 169.373 580.563 168.04C580.563 166.68 580.096 165.6 579.163 164.8C578.229 164 576.989 163.6 575.443 163.6H569.443V172.28H575.603ZM609.918 153.96L596.398 186.36H591.678L596.158 175.64L587.478 153.96H592.558L598.758 170.76L605.198 153.96H609.918ZM653.03 148.2V176H648.47V156.96L639.99 176H636.83L628.31 156.96V176H623.75V148.2H628.67L638.43 170L648.15 148.2H653.03ZM657.503 164.88C657.503 162.667 657.957 160.707 658.863 159C659.797 157.293 661.05 155.973 662.623 155.04C664.223 154.08 665.983 153.6 667.903 153.6C669.637 153.6 671.143 153.947 672.423 154.64C673.73 155.307 674.77 156.147 675.543 157.16V153.96H680.143V176H675.543V172.72C674.77 173.76 673.717 174.627 672.383 175.32C671.05 176.013 669.53 176.36 667.823 176.36C665.93 176.36 664.197 175.88 662.623 174.92C661.05 173.933 659.797 172.573 658.863 170.84C657.957 169.08 657.503 167.093 657.503 164.88ZM675.543 164.96C675.543 163.44 675.223 162.12 674.583 161C673.97 159.88 673.157 159.027 672.143 158.44C671.13 157.853 670.037 157.56 668.863 157.56C667.69 157.56 666.597 157.853 665.583 158.44C664.57 159 663.743 159.84 663.103 160.96C662.49 162.053 662.183 163.36 662.183 164.88C662.183 166.4 662.49 167.733 663.103 168.88C663.743 170.027 664.57 170.907 665.583 171.52C666.623 172.107 667.717 172.4 668.863 172.4C670.037 172.4 671.13 172.107 672.143 171.52C673.157 170.933 673.97 170.08 674.583 168.96C675.223 167.813 675.543 166.48 675.543 164.96ZM690.693 146.4V176H686.133V146.4H690.693ZM695.16 164.88C695.16 162.667 695.613 160.707 696.52 159C697.453 157.293 698.706 155.973 700.28 155.04C701.88 154.08 703.64 153.6 705.56 153.6C707.293 153.6 708.8 153.947 710.08 154.64C711.386 155.307 712.426 156.147 713.2 157.16V153.96H717.8V176H713.2V172.72C712.426 173.76 711.373 174.627 710.04 175.32C708.706 176.013 707.186 176.36 705.48 176.36C703.586 176.36 701.853 175.88 700.28 174.92C698.706 173.933 697.453 172.573 696.52 170.84C695.613 169.08 695.16 167.093 695.16 164.88ZM713.2 164.96C713.2 163.44 712.88 162.12 712.24 161C711.626 159.88 710.813 159.027 709.8 158.44C708.786 157.853 707.693 157.56 706.52 157.56C705.346 157.56 704.253 157.853 703.24 158.44C702.226 159 701.4 159.84 700.76 160.96C700.146 162.053 699.84 163.36 699.84 164.88C699.84 166.4 700.146 167.733 700.76 168.88C701.4 170.027 702.226 170.907 703.24 171.52C704.28 172.107 705.373 172.4 706.52 172.4C707.693 172.4 708.786 172.107 709.8 171.52C710.813 170.933 711.626 170.08 712.24 168.96C712.88 167.813 713.2 166.48 713.2 164.96ZM743.629 153.96L730.109 186.36H725.389L729.869 175.64L721.189 153.96H726.269L732.469 170.76L738.909 153.96H743.629ZM751.63 157.24C752.404 156.173 753.457 155.307 754.79 154.64C756.15 153.947 757.657 153.6 759.31 153.6C761.257 153.6 763.017 154.067 764.59 155C766.164 155.933 767.404 157.267 768.31 159C769.217 160.707 769.67 162.667 769.67 164.88C769.67 167.093 769.217 169.08 768.31 170.84C767.404 172.573 766.15 173.933 764.55 174.92C762.977 175.88 761.23 176.36 759.31 176.36C757.604 176.36 756.084 176.027 754.75 175.36C753.444 174.693 752.404 173.84 751.63 172.8V176H747.07V146.4H751.63V157.24ZM765.03 164.88C765.03 163.36 764.71 162.053 764.07 160.96C763.457 159.84 762.63 159 761.59 158.44C760.577 157.853 759.484 157.56 758.31 157.56C757.164 157.56 756.07 157.853 755.03 158.44C754.017 159.027 753.19 159.88 752.55 161C751.937 162.12 751.63 163.44 751.63 164.96C751.63 166.48 751.937 167.813 752.55 168.96C753.19 170.08 754.017 170.933 755.03 171.52C756.07 172.107 757.164 172.4 758.31 172.4C759.484 172.4 760.577 172.107 761.59 171.52C762.63 170.907 763.457 170.027 764.07 168.88C764.71 167.733 765.03 166.4 765.03 164.88ZM772.66 164.88C772.66 162.667 773.113 160.707 774.02 159C774.953 157.293 776.206 155.973 777.78 155.04C779.38 154.08 781.14 153.6 783.06 153.6C784.793 153.6 786.3 153.947 787.58 154.64C788.886 155.307 789.926 156.147 790.7 157.16V153.96H795.3V176H790.7V172.72C789.926 173.76 788.873 174.627 787.54 175.32C786.206 176.013 784.686 176.36 782.98 176.36C781.086 176.36 779.353 175.88 777.78 174.92C776.206 173.933 774.953 172.573 774.02 170.84C773.113 169.08 772.66 167.093 772.66 164.88ZM790.7 164.96C790.7 163.44 790.38 162.12 789.74 161C789.126 159.88 788.313 159.027 787.3 158.44C786.286 157.853 785.193 157.56 784.02 157.56C782.846 157.56 781.753 157.853 780.74 158.44C779.726 159 778.9 159.84 778.26 160.96C777.646 162.053 777.34 163.36 777.34 164.88C777.34 166.4 777.646 167.733 778.26 168.88C778.9 170.027 779.726 170.907 780.74 171.52C781.78 172.107 782.873 172.4 784.02 172.4C785.193 172.4 786.286 172.107 787.3 171.52C788.313 170.933 789.126 170.08 789.74 168.96C790.38 167.813 790.7 166.48 790.7 164.96ZM805.849 146.4V176H801.289V146.4H805.849ZM810.316 164.88C810.316 162.667 810.769 160.707 811.676 159C812.609 157.293 813.863 155.973 815.436 155.04C817.036 154.08 818.796 153.6 820.716 153.6C822.449 153.6 823.956 153.947 825.236 154.64C826.543 155.307 827.583 156.147 828.356 157.16V153.96H832.956V176H828.356V172.72C827.583 173.76 826.529 174.627 825.196 175.32C823.863 176.013 822.343 176.36 820.636 176.36C818.743 176.36 817.009 175.88 815.436 174.92C813.863 173.933 812.609 172.573 811.676 170.84C810.769 169.08 810.316 167.093 810.316 164.88ZM828.356 164.96C828.356 163.44 828.036 162.12 827.396 161C826.783 159.88 825.969 159.027 824.956 158.44C823.943 157.853 822.849 157.56 821.676 157.56C820.503 157.56 819.409 157.853 818.396 158.44C817.383 159 816.556 159.84 815.916 160.96C815.303 162.053 814.996 163.36 814.996 164.88C814.996 166.4 815.303 167.733 815.916 168.88C816.556 170.027 817.383 170.907 818.396 171.52C819.436 172.107 820.529 172.4 821.676 172.4C822.849 172.4 823.943 172.107 824.956 171.52C825.969 170.933 826.783 170.08 827.396 168.96C828.036 167.813 828.356 166.48 828.356 164.96ZM858.785 153.96L845.265 186.36H840.545L845.025 175.64L836.345 153.96H841.425L847.625 170.76L854.065 153.96H858.785Z" fill="white"/>
<path d="M50.6 62.7C49.4667 60.8333 47.9 59.4 45.9 58.4C43.9667 57.4 41.6667 56.9 39 56.9C34.0667 56.9 30.1667 58.5 27.3 61.7C24.5 64.9 23.1 69.2 23.1 74.6C23.1 80.6667 24.6 85.3 27.6 88.5C30.6667 91.6333 35.1 93.2 40.9 93.2C47.7667 93.2 52.6667 90.1 55.6 83.9H35.9V69.8H72.5V88.8C70.9667 92.5333 68.7 96.0333 65.7 99.3C62.7667 102.567 59.0333 105.267 54.5 107.4C49.9667 109.467 44.8 110.5 39 110.5C31.9333 110.5 25.6667 109 20.2 106C14.8 102.933 10.6 98.7 7.6 93.3C4.66667 87.8333 3.2 81.6 3.2 74.6C3.2 67.6667 4.66667 61.5 7.6 56.1C10.6 50.6333 14.8 46.4 20.2 43.4C25.6 40.3333 31.8333 38.8 38.9 38.8C47.7667 38.8 55.1 40.9333 60.9 45.2C66.7 49.4667 70.3 55.3 71.7 62.7H50.6ZM100.884 55.2V66.7H123.384V81.6H100.884V94.3H126.384V110H81.2836V39.5H126.384V55.2H100.884ZM268.331 63C268.331 67.2667 267.331 71.1667 265.331 74.7C263.398 78.1667 260.431 80.9667 256.431 83.1C252.498 85.1667 247.665 86.2 241.931 86.2H232.231V110H212.631V39.5H241.931C247.598 39.5 252.398 40.5 256.331 42.5C260.331 44.5 263.331 47.2667 265.331 50.8C267.331 54.3333 268.331 58.4 268.331 63ZM240.031 70.6C245.565 70.6 248.331 68.0667 248.331 63C248.331 57.8667 245.565 55.3 240.031 55.3H232.231V70.6H240.031ZM310.005 110.7C303.405 110.7 297.339 109.167 291.805 106.1C286.272 102.967 281.872 98.6667 278.605 93.2C275.405 87.6667 273.805 81.4333 273.805 74.5C273.805 67.5667 275.405 61.3667 278.605 55.9C281.872 50.3667 286.272 46.0667 291.805 43C297.339 39.9333 303.405 38.4 310.005 38.4C316.672 38.4 322.739 39.9333 328.205 43C333.739 46.0667 338.105 50.3667 341.305 55.9C344.505 61.3667 346.105 67.5667 346.105 74.5C346.105 81.4333 344.505 87.6667 341.305 93.2C338.105 98.6667 333.739 102.967 328.205 106.1C322.672 109.167 316.605 110.7 310.005 110.7ZM310.005 92.5C315.005 92.5 318.939 90.8667 321.805 87.6C324.739 84.3333 326.205 79.9667 326.205 74.5C326.205 68.9 324.739 64.5 321.805 61.3C318.939 58.0333 315.005 56.4 310.005 56.4C304.939 56.4 300.972 58.0333 298.105 61.3C295.239 64.5 293.805 68.9 293.805 74.5C293.805 80.0333 295.239 84.4333 298.105 87.7C300.972 90.9 304.939 92.5 310.005 92.5ZM390.616 110L376.616 84H374.516V110H354.916V39.5H385.816C391.483 39.5 396.283 40.5 400.216 42.5C404.15 44.4333 407.116 47.1333 409.116 50.6C411.116 54 412.116 57.8333 412.116 62.1C412.116 66.9 410.783 71.1333 408.116 74.8C405.516 78.4 401.683 80.9667 396.616 82.5L412.516 110H390.616ZM374.516 70.6H384.216C386.883 70.6 388.883 69.9667 390.216 68.7C391.55 67.4333 392.216 65.6 392.216 63.2C392.216 60.9333 391.516 59.1667 390.116 57.9C388.783 56.5667 386.816 55.9 384.216 55.9H374.516V70.6ZM474.13 39.5V55.1H455.33V110H435.73V55.1H417.13V39.5H474.13ZM582.822 39.5V110H563.222V71.1L549.922 110H533.522L520.122 70.8V110H500.522V39.5H524.222L541.922 85.3L559.222 39.5H582.822ZM638.579 98.5H613.579L609.779 110H589.179L614.879 39.5H637.479L663.079 110H642.379L638.579 98.5ZM633.679 83.5L626.079 60.7L618.579 83.5H633.679ZM689.067 95H710.967V110H669.467V39.5H689.067V95ZM763.188 98.5H738.188L734.388 110H713.788L739.488 39.5H762.088L787.688 110H766.988L763.188 98.5ZM758.288 83.5L750.688 60.7L743.188 83.5H758.288ZM858.177 39.5L833.377 87.6V110H813.677V87.6L788.877 39.5H811.277L823.677 66.7L836.077 39.5H858.177ZM909.194 73.8C913.327 74.7333 916.594 76.8 918.994 80C921.46 83.1333 922.694 86.7333 922.694 90.8C922.694 96.8 920.627 101.5 916.494 104.9C912.36 108.3 906.56 110 899.094 110H864.194V39.5H897.994C905.194 39.5 910.827 41.1 914.894 44.3C919.027 47.5 921.094 52 921.094 57.8C921.094 61.9333 919.994 65.4 917.794 68.2C915.66 70.9333 912.794 72.8 909.194 73.8ZM883.794 67.5H893.694C898.627 67.5 901.094 65.4667 901.094 61.4C901.094 57.2 898.627 55.1 893.694 55.1H883.794V67.5ZM895.194 94.2C900.127 94.2 902.594 92.1333 902.594 88C902.594 85.8667 901.927 84.2333 900.594 83.1C899.327 81.9667 897.494 81.4 895.094 81.4H883.794V94.2H895.194ZM975.884 98.5H950.884L947.084 110H926.484L952.184 39.5H974.784L1000.38 110H979.684L975.884 98.5ZM970.984 83.5L963.384 60.7L955.884 83.5H970.984ZM1026.37 95H1048.27V110H1006.77V39.5H1026.37V95ZM1100.49 98.5H1075.49L1071.69 110H1051.09L1076.79 39.5H1099.39L1124.99 110H1104.29L1100.49 98.5ZM1095.59 83.5L1087.99 60.7L1080.49 83.5H1095.59ZM1195.48 39.5L1170.68 87.6V110H1150.98V87.6L1126.18 39.5H1148.58L1160.98 66.7L1173.38 39.5H1195.48Z" fill="white"/>
<path d="M170.641 106.713C170.046 107.138 169.333 107.366 168.602 107.366C167.871 107.366 167.158 107.138 166.563 106.713C148.982 94.1816 130.323 68.4051 149.186 49.7791C154.363 44.6825 161.338 41.8286 168.602 41.835C175.884 41.835 182.87 44.693 188.018 49.7754C206.881 68.4015 188.222 94.1743 170.641 106.713Z" stroke="white" stroke-width="9" stroke-linecap="round" stroke-linejoin="round"/>
<path d="M168.602 74.6016C170.533 74.6016 172.385 73.8344 173.75 72.4689C175.116 71.1033 175.883 69.2512 175.883 67.3201C175.883 65.3889 175.116 63.5368 173.75 62.1713C172.385 60.8057 170.533 60.0386 168.602 60.0386C166.67 60.0386 164.818 60.8057 163.453 62.1713C162.087 63.5368 161.32 65.3889 161.32 67.3201C161.32 69.2512 162.087 71.1033 163.453 72.4689C164.818 73.8344 166.67 74.6016 168.602 74.6016Z" stroke="white" stroke-width="5.8252" stroke-linecap="round" stroke-linejoin="round"/>
</svg>
