<svg width="124" height="124" viewBox="0 0 124 124" fill="none" xmlns="http://www.w3.org/2000/svg">
<path d="M122.237 25.6998C121.915 24.8716 121.434 24.1147 120.819 23.4725L100.571 3.22429C99.942 2.59499 99.1949 2.09589 98.3724 1.75489C97.5499 1.41441 96.6689 1.23926 95.7787 1.23926C93.9812 1.23926 92.2576 1.95329 90.9866 3.22429C89.7156 4.49529 89.0016 6.21889 89.0016 8.01637C89.0016 9.81386 89.7156 11.5375 90.9866 12.8085L99.7612 21.5153H41.7829C36.4127 21.5153 31.262 23.6486 27.4651 27.4461C23.6676 31.2431 21.5342 36.3938 21.5342 41.764V99.7423L12.8274 90.9677C11.5564 89.6967 9.83278 88.9827 8.0353 88.9827C6.23781 88.9827 4.51421 89.6967 3.24321 90.9677C1.97221 92.2387 1.25818 93.9623 1.25818 95.7598C1.25818 97.5573 1.97221 99.2809 3.24321 100.552L23.4919 120.801C24.1336 121.415 24.8905 121.896 25.7192 122.218C26.5268 122.575 27.4005 122.759 28.284 122.759C29.167 122.759 30.0406 122.575 30.8487 122.218C31.6774 121.896 32.4344 121.415 33.0761 120.801L53.3247 100.552C54.5957 99.2809 55.3098 97.5573 55.3098 95.7598C55.3098 93.9623 54.5957 92.2387 53.3247 90.9677C52.0537 89.6967 50.3296 88.9827 48.5327 88.9827C46.7357 88.9827 45.0111 89.6967 43.7401 90.9677L35.0332 99.7423V41.764C35.0332 39.9738 35.7446 38.2569 37.01 36.9916C38.2758 35.7257 39.9927 35.0143 41.7829 35.0143H99.7612L90.9866 43.7211C90.3542 44.3489 89.852 45.095 89.509 45.9175C89.1664 46.74 88.9902 47.6225 88.9902 48.5132C88.9902 49.4045 89.1664 50.2864 89.509 51.1095C89.852 51.9315 90.3542 52.6781 90.9866 53.3053C91.6144 53.9382 92.361 54.4399 93.183 54.783C94.0055 55.126 94.888 55.3022 95.7787 55.3022C96.6695 55.3022 97.5519 55.126 98.3745 54.783C99.1965 54.4399 99.9431 53.9377 100.571 53.3053L120.819 33.0571C121.434 32.4149 121.915 31.658 122.237 30.8298C122.912 29.1863 122.912 27.3433 122.237 25.6998Z" fill="white"/>
</svg>
