<svg width="141" height="141" viewBox="0 0 141 141" fill="none" xmlns="http://www.w3.org/2000/svg">
<path fill-rule="evenodd" clip-rule="evenodd" d="M70.4991 8.24463C36.1169 8.24463 8.24451 36.117 8.24451 70.4993C8.24451 104.881 36.1169 132.754 70.4991 132.754C104.881 132.754 132.753 104.881 132.753 70.4993C132.753 36.117 104.881 8.24463 70.4991 8.24463ZM17.1746 70.4993C17.1746 41.0489 41.0488 17.1746 70.4991 17.1746C99.9492 17.1746 123.823 41.0489 123.823 70.4993C123.823 99.9497 99.9492 123.824 70.4991 123.824C41.0488 123.824 17.1746 99.9497 17.1746 70.4993ZM95.4936 52.0552C96.9873 49.9324 96.4778 47.0005 94.3553 45.5066C92.2322 44.0128 89.3004 44.5228 87.8065 46.6456L61.2858 84.3329L50.354 73.1988C48.5354 71.3466 45.5596 71.3192 43.7075 73.1379C41.8552 74.9564 41.8279 77.9321 43.6465 79.7843L58.5298 94.9432C59.5071 95.9387 60.876 96.4482 62.2663 96.3344C63.6565 96.2216 64.9245 95.4959 65.7272 94.3548L95.4936 52.0552Z" fill="white"/>
</svg>
