<svg width="141" height="141" viewBox="0 0 141 141" fill="none" xmlns="http://www.w3.org/2000/svg">
<g clip-path="url(#clip0_22_269)">
<path fill-rule="evenodd" clip-rule="evenodd" d="M55.3929 104.491H16.3661C13.695 104.491 11.1333 103.429 9.24453 101.541C7.35577 99.6522 6.29468 97.0906 6.29468 94.4194V16.3659C6.29468 13.6947 7.35577 11.133 9.24453 9.24428C11.1333 7.35553 13.695 6.29443 16.3661 6.29443H94.4197C97.0908 6.29443 99.6525 7.35553 101.541 9.24428C103.43 11.133 104.491 13.6947 104.491 16.3659V55.3926C95.4297 55.376 86.3556 60.9106 83.9804 71.9434L83.7708 72.9178C82.5114 78.7677 77.9697 83.0222 72.5577 83.9796C61.1145 86.004 55.3929 95.2474 55.3929 104.491Z" fill="#00164A"/>
<path fill-rule="evenodd" clip-rule="evenodd" d="M16.3661 12.5893C15.3644 12.5893 14.4038 12.9872 13.6954 13.6954C12.9872 14.4038 12.5893 15.3644 12.5893 16.3661V60.5499C13.9688 60.4694 15.3584 60.4286 16.7572 60.4286C37.9663 60.4286 56.9818 69.7933 69.9031 84.606C57.8077 88.2168 53.2742 100.6 56.3024 110.786H15.1071C11.1005 110.786 7.25791 109.194 4.42478 106.361C1.59164 103.528 0 99.6857 0 95.6791V16.3661C0 12.0255 1.72428 7.86274 4.79351 4.79351C7.86274 1.72428 12.0255 0 16.3661 0H94.4196C98.7602 0 102.923 1.72428 105.992 4.79351C109.061 7.86274 110.786 12.0255 110.786 16.3661V49.0982C110.786 52.5747 107.968 55.3929 104.491 55.3929C101.014 55.3929 98.1964 52.5747 98.1964 49.0982V16.3661C98.1964 15.3644 97.7985 14.4038 97.0902 13.6954C96.382 12.9872 95.4213 12.5893 94.4196 12.5893H16.3661ZM62.9464 22.6607C54.603 22.6607 47.8393 29.4244 47.8393 37.7679C47.8393 46.1113 54.603 52.875 62.9464 52.875C71.2899 52.875 78.0536 46.1113 78.0536 37.7679C78.0536 29.4244 71.2899 22.6607 62.9464 22.6607ZM112.558 74.522C110.592 65.7591 98.176 65.8218 96.2878 74.593L96.078 75.5674C93.7633 86.3199 85.3021 94.51 74.7507 96.3766C65.7259 97.9731 65.7259 111.009 74.7507 112.606C85.3021 114.472 93.7633 122.662 96.078 133.414L96.2878 134.389C98.176 143.16 110.592 143.223 112.558 134.46L112.812 133.325C115.215 122.614 123.685 114.485 134.218 112.622C143.261 111.022 143.261 97.9602 134.218 96.3605C123.685 94.4972 115.215 86.3685 112.812 75.6577L112.558 74.522Z" fill="white"/>
</g>
<defs>
<clipPath id="clip0_22_269">
<rect width="141" height="141" fill="white"/>
</clipPath>
</defs>
</svg>
