<svg width="124" height="124" viewBox="0 0 124 124" fill="none" xmlns="http://www.w3.org/2000/svg">
<g clip-path="url(#clip0_21_191)">
<path fill-rule="evenodd" clip-rule="evenodd" d="M65.3251 26.5763C65.3251 38.206 55.8995 47.6339 44.2725 47.6339C32.6454 47.6339 23.2198 38.206 23.2198 26.5763C23.2198 14.9464 32.6454 5.51855 44.2725 5.51855C55.8995 5.51855 65.3251 14.9464 65.3251 26.5763ZM53.9917 95.4934C59.0998 88.6238 68.8094 87.1962 75.6787 92.304L78.3832 89.6637C71.8409 76.4989 59.0188 67.5531 44.2717 67.5531C22.8809 67.5531 5.54016 86.3747 5.54016 109.592H51.7066C50.1872 104.966 50.8652 99.6979 53.9917 95.4934Z" fill="white"/>
<path fill-rule="evenodd" clip-rule="evenodd" d="M44.2723 11.0544C35.7038 11.0544 28.7554 18.0025 28.7554 26.5763C28.7554 35.1501 35.7038 42.0983 44.2723 42.0983C52.8408 42.0983 59.7892 35.1501 59.7892 26.5763C59.7892 18.0025 52.8408 11.0544 44.2723 11.0544ZM17.6839 26.5763C17.6839 11.8904 29.5867 -0.0170898 44.2723 -0.0170898C58.9579 -0.0170898 70.8606 11.8904 70.8606 26.5763C70.8606 41.2622 58.9579 53.1697 44.2723 53.1697C29.5867 53.1697 17.6839 41.2622 17.6839 26.5763ZM121.559 70.0988C124.414 72.4026 124.862 76.5847 122.558 79.44L88.5847 121.545C86.3451 124.321 82.3132 124.832 79.4511 122.704L62.4646 110.072C59.5207 107.883 58.9087 103.722 61.0979 100.778C63.2872 97.8344 67.4484 97.2224 70.3924 99.411L82.2549 108.233L112.218 71.0973C114.522 68.242 118.704 67.795 121.559 70.0988ZM44.2715 73.0889C27.9982 73.0889 13.8986 86.2142 11.451 104.057H46.6296C49.6869 104.057 52.1653 106.535 52.1653 109.592C52.1653 112.65 49.6869 115.128 46.6296 115.128H5.53998C2.48269 115.128 0.00427246 112.65 0.00427246 109.592C0.00427246 83.7533 19.4051 62.0175 44.2715 62.0175C60.6233 62.0175 74.7069 71.5084 82.3359 85.2866C83.8169 87.9613 82.8491 91.3297 80.1745 92.8107C77.4999 94.2916 74.1311 93.3244 72.6501 90.6495C66.7341 79.9652 56.1296 73.0889 44.2715 73.0889Z" fill="white"/>
</g>
<defs>
<clipPath id="clip0_21_191">
<rect width="124" height="124" fill="white"/>
</clipPath>
</defs>
</svg>
