<svg width="141" height="141" viewBox="0 0 141 141" fill="none" xmlns="http://www.w3.org/2000/svg">
<g clip-path="url(#clip0_21_258)">
<path fill-rule="evenodd" clip-rule="evenodd" d="M94 82.2515C101.57 82.2519 108.847 85.1745 114.314 90.4098C119.782 95.6452 123.017 102.789 123.346 110.352L123.375 111.626V117.501C123.376 120.466 122.256 123.321 120.241 125.495C118.225 127.668 115.462 129 112.506 129.222L111.625 129.251H29.375C26.4106 129.252 23.5554 128.133 21.3818 126.117C19.2081 124.102 17.8767 121.339 17.6544 118.383L17.625 117.501V111.626C17.6254 104.057 20.5481 96.7794 25.7834 91.312C31.0187 85.8447 38.1625 82.6094 45.7251 82.2808L47 82.2515H94ZM94 94.0015H47C42.5044 94.0012 38.1786 95.7189 34.9077 98.803C31.6368 101.887 29.6681 106.105 29.4044 110.592L29.375 111.626V117.501H111.625V111.626C111.625 107.131 109.908 102.805 106.823 99.5342C103.739 96.2633 99.5219 94.2946 95.034 94.0308L94 94.0015ZM70.5 11.7515C78.2907 11.7515 85.7624 14.8463 91.2713 20.3552C96.7801 25.8641 99.875 33.3357 99.875 41.1265C99.875 48.9172 96.7801 56.3888 91.2713 61.8977C85.7624 67.4066 78.2907 70.5015 70.5 70.5015C62.7093 70.5015 55.2376 67.4066 49.7287 61.8977C44.2199 56.3888 41.125 48.9172 41.125 41.1265C41.125 33.3357 44.2199 25.8641 49.7287 20.3552C55.2376 14.8463 62.7093 11.7515 70.5 11.7515ZM70.5 23.5015C68.1855 23.5015 65.8936 23.9573 63.7552 24.8431C61.6168 25.7288 59.6739 27.0271 58.0372 28.6637C56.4006 30.3003 55.1024 32.2433 54.2166 34.3817C53.3309 36.52 52.875 38.8119 52.875 41.1265C52.875 43.441 53.3309 45.7329 54.2166 47.8713C55.1024 50.0096 56.4006 51.9526 58.0372 53.5892C59.6739 55.2259 61.6168 56.5241 63.7552 57.4098C65.8936 58.2956 68.1855 58.7515 70.5 58.7515C75.1744 58.7515 79.6574 56.8946 82.9628 53.5892C86.2681 50.2839 88.125 45.8009 88.125 41.1265C88.125 36.452 86.2681 31.969 82.9628 28.6637C79.6574 25.3584 75.1744 23.5015 70.5 23.5015Z" fill="white"/>
</g>
<defs>
<clipPath id="clip0_21_258">
<rect width="141" height="141" fill="white"/>
</clipPath>
</defs>
</svg>
